<svg class="animated" id="freepik_stories-dark-analytics" xmlns="http://www.w3.org/2000/svg" viewBox="0 0 500 500" version="1.1" xmlns:xlink="http://www.w3.org/1999/xlink" xmlns:svgjs="http://svgjs.com/svgjs"><style>svg#freepik_stories-dark-analytics:not(.animated) .animable {opacity: 0;}svg#freepik_stories-dark-analytics.animated #freepik--Chart3--inject-293 {animation: 1.8s 1 forwards cubic-bezier(.36,-0.01,.5,1.38) slideLeft,1.5s Infinite  linear wind;animation-delay: 0s,1.8s;}svg#freepik_stories-dark-analytics.animated #freepik--Chart2--inject-293 {animation: 2.6s 1 forwards cubic-bezier(.36,-0.01,.5,1.38) slideUp,1.5s Infinite  linear wind;animation-delay: 0s,2.6s;}svg#freepik_stories-dark-analytics.animated #freepik--Chart1--inject-293 {animation: 1s 1 forwards cubic-bezier(.36,-0.01,.5,1.38) slideDown,1.5s Infinite  linear wind;animation-delay: 0s,1s;}svg#freepik_stories-dark-analytics.animated #freepik--Character2--inject-293 {animation: 1.5s Infinite  linear wind;animation-delay: 0s;}            @keyframes slideLeft {                0% {                    opacity: 0;                    transform: translateX(-30px);                }                100% {                    opacity: 1;                    transform: translateX(0);                }            }                    @keyframes wind {                0% {                    transform: rotate( 0deg );                }                25% {                    transform: rotate( 1deg );                }                75% {                    transform: rotate( -1deg );                }            }                    @keyframes slideUp {                0% {                    opacity: 0;                    transform: translateY(30px);                }                100% {                    opacity: 1;                    transform: inherit;                }            }                    @keyframes slideDown {                0% {                    opacity: 0;                    transform: translateY(-30px);                }                100% {                    opacity: 1;                    transform: translateY(0);                }            }        </style><g id="freepik--Shadow--inject-293" class="animable" style="transform-origin: 250px 416.24px;"><ellipse id="freepik--path--inject-293" cx="250" cy="416.24" rx="193.89" ry="11.32" style="fill: rgb(245, 245, 245); transform-origin: 250px 416.24px;" class="animable"></ellipse></g><g id="freepik--Chart3--inject-293" class="animable animator-active" style="transform-origin: 223.41px 198.415px;"><rect x="135.41" y="127.83" width="176" height="140.84" rx="2.54" style="fill: rgb(38, 50, 56); transform-origin: 223.41px 198.25px;" id="elgmpqccxlho8" class="animable"></rect><g id="elnmi9e0in8g8"><g style="opacity: 0.2; transform-origin: 227px 203px;" class="animable"><rect x="158" y="250" width="138" height="1" style="fill: rgb(255, 255, 255); transform-origin: 227px 250.5px;" id="elbng78chde1" class="animable"></rect><rect x="158" y="245" width="138" height="1" style="fill: rgb(255, 255, 255); transform-origin: 227px 245.5px;" id="ela7qhvb03hko" class="animable"></rect><rect x="158" y="240" width="138" height="1" style="fill: rgb(255, 255, 255); transform-origin: 227px 240.5px;" id="elk3vrfo5xe0a" class="animable"></rect><rect x="158" y="235" width="138" height="1" style="fill: rgb(255, 255, 255); transform-origin: 227px 235.5px;" id="ela5mtyw2wp14" class="animable"></rect><rect x="158" y="230" width="138" height="1" style="fill: rgb(255, 255, 255); transform-origin: 227px 230.5px;" id="elhzcu7cmz2l5" class="animable"></rect><rect x="158" y="225" width="138" height="1" style="fill: rgb(255, 255, 255); transform-origin: 227px 225.5px;" id="elynv5e3758wp" class="animable"></rect><rect x="158" y="220" width="138" height="1" style="fill: rgb(255, 255, 255); transform-origin: 227px 220.5px;" id="elz6apvg6tmz" class="animable"></rect><rect x="158" y="215" width="138" height="1" style="fill: rgb(255, 255, 255); transform-origin: 227px 215.5px;" id="el684ftyxqbw9" class="animable"></rect><rect x="158" y="210" width="138" height="1" style="fill: rgb(255, 255, 255); transform-origin: 227px 210.5px;" id="el6mc1kpjbq4g" class="animable"></rect><rect x="158" y="205" width="138" height="1" style="fill: rgb(255, 255, 255); transform-origin: 227px 205.5px;" id="elo904mpoog4q" class="animable"></rect><rect x="158" y="200" width="138" height="1" style="fill: rgb(255, 255, 255); transform-origin: 227px 200.5px;" id="elftffjft64p" class="animable"></rect><rect x="158" y="195" width="138" height="1" style="fill: rgb(255, 255, 255); transform-origin: 227px 195.5px;" id="elisx8qxs87wa" class="animable"></rect><rect x="158" y="190" width="138" height="1" style="fill: rgb(255, 255, 255); transform-origin: 227px 190.5px;" id="elkd6dzgym22g" class="animable"></rect><rect x="158" y="185" width="138" height="1" style="fill: rgb(255, 255, 255); transform-origin: 227px 185.5px;" id="elvgd7yzgkuxp" class="animable"></rect><rect x="158" y="180" width="138" height="1" style="fill: rgb(255, 255, 255); transform-origin: 227px 180.5px;" id="el4zfwkv60t9m" class="animable"></rect><rect x="158" y="175" width="138" height="1" style="fill: rgb(255, 255, 255); transform-origin: 227px 175.5px;" id="elcrn2edzlcf4" class="animable"></rect><rect x="158" y="170" width="138" height="1" style="fill: rgb(255, 255, 255); transform-origin: 227px 170.5px;" id="el1nn6h0g8p0v" class="animable"></rect><rect x="158" y="165" width="138" height="1" style="fill: rgb(255, 255, 255); transform-origin: 227px 165.5px;" id="elbe56bh6c3g6" class="animable"></rect><rect x="158" y="160" width="138" height="1" style="fill: rgb(255, 255, 255); transform-origin: 227px 160.5px;" id="elt1h94evkvb8" class="animable"></rect><rect x="158" y="155" width="138" height="1" style="fill: rgb(255, 255, 255); transform-origin: 227px 155.5px;" id="el79rg5rknzdg" class="animable"></rect></g></g><rect x="162.67" y="241.02" width="8.33" height="9.98" style="fill: rgb(214, 30, 30); transform-origin: 166.835px 246.01px;" id="ell4ld2bqqu1h" class="animable"></rect><rect x="177.67" y="211" width="8.33" height="40" style="fill: rgb(214, 30, 30); transform-origin: 181.835px 231px;" id="elwqom6c2hz7t" class="animable"></rect><rect x="192.67" y="190.99" width="8.33" height="60.01" style="fill: rgb(214, 30, 30); transform-origin: 196.835px 220.995px;" id="el52ewpld1gu4" class="animable"></rect><rect x="207.67" y="196.99" width="8.33" height="54.01" style="fill: rgb(214, 30, 30); transform-origin: 211.835px 223.995px;" id="elgmwikv6wdio" class="animable"></rect><rect x="222.67" y="211" width="8.33" height="40" style="fill: rgb(214, 30, 30); transform-origin: 226.835px 231px;" id="elw1qtlmi5s0b" class="animable"></rect><rect x="237.67" y="190.99" width="8.33" height="60.01" style="fill: rgb(214, 30, 30); transform-origin: 241.835px 220.995px;" id="elo18tswld3nh" class="animable"></rect><rect x="252.67" y="170.97" width="8.33" height="80.03" style="fill: rgb(214, 30, 30); transform-origin: 256.835px 210.985px;" id="el5x233yxj85n" class="animable"></rect><rect x="267.67" y="165.97" width="8.33" height="85.03" style="fill: rgb(214, 30, 30); transform-origin: 271.835px 208.485px;" id="elu3ahjl5riwc" class="animable"></rect><rect x="282.67" y="211" width="8.33" height="40" style="fill: rgb(214, 30, 30); transform-origin: 286.835px 231px;" id="el5jkpozm8b7n" class="animable"></rect><g id="elh4jujf677ja"><g style="opacity: 0.6; isolation: isolate; transform-origin: 226.835px 223.995px;" class="animable"><rect x="162.67" y="244.66" width="8.33" height="6.34" style="fill: rgb(255, 255, 255); transform-origin: 166.835px 247.83px;" id="el0zey0pdswu2" class="animable"></rect><rect x="177.67" y="225.59" width="8.33" height="25.41" style="fill: rgb(255, 255, 255); transform-origin: 181.835px 238.295px;" id="el1ytf9o1yoji" class="animable"></rect><rect x="192.67" y="212.88" width="8.33" height="38.12" style="fill: rgb(255, 255, 255); transform-origin: 196.835px 231.94px;" id="ell8j423qfdp" class="animable"></rect><rect x="207.67" y="216.69" width="8.33" height="34.31" style="fill: rgb(255, 255, 255); transform-origin: 211.835px 233.845px;" id="elybj1hsrg4a" class="animable"></rect><rect x="222.67" y="225.59" width="8.33" height="25.41" style="fill: rgb(255, 255, 255); transform-origin: 226.835px 238.295px;" id="el2wyvbuk5nwq" class="animable"></rect><rect x="237.67" y="212.88" width="8.33" height="38.12" style="fill: rgb(255, 255, 255); transform-origin: 241.835px 231.94px;" id="elfhe99twme98" class="animable"></rect><rect x="252.67" y="200.17" width="8.33" height="50.83" style="fill: rgb(255, 255, 255); transform-origin: 256.835px 225.585px;" id="el103pvd6l2gym" class="animable"></rect><rect x="267.67" y="196.99" width="8.33" height="54.01" style="fill: rgb(255, 255, 255); transform-origin: 271.835px 223.995px;" id="elo753xd9stof" class="animable"></rect><rect x="282.67" y="225.59" width="8.33" height="25.41" style="fill: rgb(255, 255, 255); transform-origin: 286.835px 238.295px;" id="elvz6g61epnqb" class="animable"></rect></g></g><g id="el1nus58iieb3"><g style="opacity: 0.2; transform-origin: 153.29px 202.22px;" class="animable"><path d="M152.07,248.44h2.44a1.28,1.28,0,0,1,1.28,1.28h0a1.28,1.28,0,0,1-1.28,1.28h-2.44a1.28,1.28,0,0,1-1.28-1.28h0A1.28,1.28,0,0,1,152.07,248.44Z" style="fill: rgb(255, 255, 255); transform-origin: 153.29px 249.72px;" id="el0l4893q4mnjo" class="animable"></path><path d="M152.07,243.44h2.44a1.28,1.28,0,0,1,1.28,1.28h0a1.28,1.28,0,0,1-1.28,1.28h-2.44a1.28,1.28,0,0,1-1.28-1.28h0A1.28,1.28,0,0,1,152.07,243.44Z" style="fill: rgb(255, 255, 255); transform-origin: 153.29px 244.72px;" id="elz2hlt44rwqi" class="animable"></path><path d="M152.07,238.44h2.44a1.28,1.28,0,0,1,1.28,1.28h0a1.28,1.28,0,0,1-1.28,1.28h-2.44a1.28,1.28,0,0,1-1.28-1.28h0A1.28,1.28,0,0,1,152.07,238.44Z" style="fill: rgb(255, 255, 255); transform-origin: 153.29px 239.72px;" id="elm8i6zyszcqe" class="animable"></path><path d="M152.07,233.44h2.44a1.28,1.28,0,0,1,1.28,1.28h0a1.28,1.28,0,0,1-1.28,1.28h-2.44a1.28,1.28,0,0,1-1.28-1.28h0A1.28,1.28,0,0,1,152.07,233.44Z" style="fill: rgb(255, 255, 255); transform-origin: 153.29px 234.72px;" id="elt01wgc8wge" class="animable"></path><path d="M152.07,228.44h2.44a1.28,1.28,0,0,1,1.28,1.28h0a1.28,1.28,0,0,1-1.28,1.28h-2.44a1.28,1.28,0,0,1-1.28-1.28h0A1.28,1.28,0,0,1,152.07,228.44Z" style="fill: rgb(255, 255, 255); transform-origin: 153.29px 229.72px;" id="el1fxbkkz313f" class="animable"></path><path d="M152.07,223.44h2.44a1.28,1.28,0,0,1,1.28,1.28h0a1.28,1.28,0,0,1-1.28,1.28h-2.44a1.28,1.28,0,0,1-1.28-1.28h0A1.28,1.28,0,0,1,152.07,223.44Z" style="fill: rgb(255, 255, 255); transform-origin: 153.29px 224.72px;" id="el62k4nssaytl" class="animable"></path><path d="M152.07,218.44h2.44a1.28,1.28,0,0,1,1.28,1.28h0a1.28,1.28,0,0,1-1.28,1.28h-2.44a1.28,1.28,0,0,1-1.28-1.28h0A1.28,1.28,0,0,1,152.07,218.44Z" style="fill: rgb(255, 255, 255); transform-origin: 153.29px 219.72px;" id="elqm61i41kuj" class="animable"></path><path d="M152.07,213.44h2.44a1.28,1.28,0,0,1,1.28,1.28h0a1.28,1.28,0,0,1-1.28,1.28h-2.44a1.28,1.28,0,0,1-1.28-1.28h0A1.28,1.28,0,0,1,152.07,213.44Z" style="fill: rgb(255, 255, 255); transform-origin: 153.29px 214.72px;" id="el7s2iifjp8jx" class="animable"></path><path d="M152.07,208.44h2.44a1.28,1.28,0,0,1,1.28,1.28h0a1.28,1.28,0,0,1-1.28,1.28h-2.44a1.28,1.28,0,0,1-1.28-1.28h0A1.28,1.28,0,0,1,152.07,208.44Z" style="fill: rgb(255, 255, 255); transform-origin: 153.29px 209.72px;" id="el74gd0efcb1l" class="animable"></path><path d="M152.07,203.44h2.44a1.28,1.28,0,0,1,1.28,1.28h0a1.28,1.28,0,0,1-1.28,1.28h-2.44a1.28,1.28,0,0,1-1.28-1.28h0A1.28,1.28,0,0,1,152.07,203.44Z" style="fill: rgb(255, 255, 255); transform-origin: 153.29px 204.72px;" id="elp97mka00l" class="animable"></path><path d="M152.07,198.44h2.44a1.28,1.28,0,0,1,1.28,1.28h0a1.28,1.28,0,0,1-1.28,1.28h-2.44a1.28,1.28,0,0,1-1.28-1.28h0A1.28,1.28,0,0,1,152.07,198.44Z" style="fill: rgb(255, 255, 255); transform-origin: 153.29px 199.72px;" id="elu55uoiv8nd9" class="animable"></path><path d="M152.07,193.44h2.44a1.28,1.28,0,0,1,1.28,1.28h0a1.28,1.28,0,0,1-1.28,1.28h-2.44a1.28,1.28,0,0,1-1.28-1.28h0A1.28,1.28,0,0,1,152.07,193.44Z" style="fill: rgb(255, 255, 255); transform-origin: 153.29px 194.72px;" id="elo5vraj1pq5" class="animable"></path><path d="M152.07,188.44h2.44a1.28,1.28,0,0,1,1.28,1.28h0a1.28,1.28,0,0,1-1.28,1.28h-2.44a1.28,1.28,0,0,1-1.28-1.28h0A1.28,1.28,0,0,1,152.07,188.44Z" style="fill: rgb(255, 255, 255); transform-origin: 153.29px 189.72px;" id="elwp701zblqx" class="animable"></path><path d="M152.07,183.44h2.44a1.28,1.28,0,0,1,1.28,1.28h0a1.28,1.28,0,0,1-1.28,1.28h-2.44a1.28,1.28,0,0,1-1.28-1.28h0A1.28,1.28,0,0,1,152.07,183.44Z" style="fill: rgb(255, 255, 255); transform-origin: 153.29px 184.72px;" id="elpyzqpaa7ta" class="animable"></path><path d="M152.07,178.44h2.44a1.28,1.28,0,0,1,1.28,1.28h0a1.28,1.28,0,0,1-1.28,1.28h-2.44a1.28,1.28,0,0,1-1.28-1.28h0A1.28,1.28,0,0,1,152.07,178.44Z" style="fill: rgb(255, 255, 255); transform-origin: 153.29px 179.72px;" id="el7z2hhya13mk" class="animable"></path><path d="M152.07,173.44h2.44a1.28,1.28,0,0,1,1.28,1.28h0a1.28,1.28,0,0,1-1.28,1.28h-2.44a1.28,1.28,0,0,1-1.28-1.28h0A1.28,1.28,0,0,1,152.07,173.44Z" style="fill: rgb(255, 255, 255); transform-origin: 153.29px 174.72px;" id="ello8yqddo7" class="animable"></path><path d="M152.07,168.44h2.44a1.28,1.28,0,0,1,1.28,1.28h0a1.28,1.28,0,0,1-1.28,1.28h-2.44a1.28,1.28,0,0,1-1.28-1.28h0A1.28,1.28,0,0,1,152.07,168.44Z" style="fill: rgb(255, 255, 255); transform-origin: 153.29px 169.72px;" id="elu1609k1nlis" class="animable"></path><path d="M152.07,163.44h2.44a1.28,1.28,0,0,1,1.28,1.28h0a1.28,1.28,0,0,1-1.28,1.28h-2.44a1.28,1.28,0,0,1-1.28-1.28h0A1.28,1.28,0,0,1,152.07,163.44Z" style="fill: rgb(255, 255, 255); transform-origin: 153.29px 164.72px;" id="elm2ulti5bq2" class="animable"></path><path d="M152.07,158.44h2.44a1.28,1.28,0,0,1,1.28,1.28h0a1.28,1.28,0,0,1-1.28,1.28h-2.44a1.28,1.28,0,0,1-1.28-1.28h0A1.28,1.28,0,0,1,152.07,158.44Z" style="fill: rgb(255, 255, 255); transform-origin: 153.29px 159.72px;" id="elrwn1meyfb3m" class="animable"></path><path d="M152.07,153.44h2.44a1.28,1.28,0,0,1,1.28,1.28h0a1.28,1.28,0,0,1-1.28,1.28h-2.44a1.28,1.28,0,0,1-1.28-1.28h0A1.28,1.28,0,0,1,152.07,153.44Z" style="fill: rgb(255, 255, 255); transform-origin: 153.29px 154.72px;" id="el7dcpreeqd5x" class="animable"></path></g></g><path d="M165.62,253.5h2.44a1.28,1.28,0,0,1,1.28,1.28h0a1.28,1.28,0,0,1-1.28,1.28h-2.44a1.28,1.28,0,0,1-1.28-1.28h0A1.28,1.28,0,0,1,165.62,253.5Z" style="fill: rgb(255, 255, 255); transform-origin: 166.84px 254.78px;" id="elia53ifcada" class="animable"></path><path d="M180.62,253.5h2.44a1.28,1.28,0,0,1,1.28,1.28h0a1.28,1.28,0,0,1-1.28,1.28h-2.44a1.28,1.28,0,0,1-1.28-1.28h0A1.28,1.28,0,0,1,180.62,253.5Z" style="fill: rgb(255, 255, 255); transform-origin: 181.84px 254.78px;" id="elu6ish4lh8j" class="animable"></path><path d="M195.62,253.5h2.44a1.28,1.28,0,0,1,1.28,1.28h0a1.28,1.28,0,0,1-1.28,1.28h-2.44a1.28,1.28,0,0,1-1.28-1.28h0A1.28,1.28,0,0,1,195.62,253.5Z" style="fill: rgb(255, 255, 255); transform-origin: 196.84px 254.78px;" id="elrhgdfl0mp3c" class="animable"></path><path d="M210.62,253.5h2.44a1.28,1.28,0,0,1,1.28,1.28h0a1.28,1.28,0,0,1-1.28,1.28h-2.44a1.28,1.28,0,0,1-1.28-1.28h0A1.28,1.28,0,0,1,210.62,253.5Z" style="fill: rgb(255, 255, 255); transform-origin: 211.84px 254.78px;" id="elq2jp8hszum" class="animable"></path><path d="M225.62,253.5h2.44a1.28,1.28,0,0,1,1.28,1.28h0a1.28,1.28,0,0,1-1.28,1.28h-2.44a1.28,1.28,0,0,1-1.28-1.28h0A1.28,1.28,0,0,1,225.62,253.5Z" style="fill: rgb(255, 255, 255); transform-origin: 226.84px 254.78px;" id="elz9by4a7ckp" class="animable"></path><path d="M240.62,253.5h2.44a1.28,1.28,0,0,1,1.28,1.28h0a1.28,1.28,0,0,1-1.28,1.28h-2.44a1.28,1.28,0,0,1-1.28-1.28h0A1.28,1.28,0,0,1,240.62,253.5Z" style="fill: rgb(255, 255, 255); transform-origin: 241.84px 254.78px;" id="eljhblp77zz9s" class="animable"></path><path d="M255.62,253.5h2.44a1.28,1.28,0,0,1,1.28,1.28h0a1.28,1.28,0,0,1-1.28,1.28h-2.44a1.28,1.28,0,0,1-1.28-1.28h0A1.28,1.28,0,0,1,255.62,253.5Z" style="fill: rgb(255, 255, 255); transform-origin: 256.84px 254.78px;" id="el999ez60q1uh" class="animable"></path><path d="M270.62,253.5h2.44a1.28,1.28,0,0,1,1.28,1.28h0a1.28,1.28,0,0,1-1.28,1.28h-2.44a1.28,1.28,0,0,1-1.28-1.28h0A1.28,1.28,0,0,1,270.62,253.5Z" style="fill: rgb(255, 255, 255); transform-origin: 271.84px 254.78px;" id="el0r62o9tn7u8" class="animable"></path><path d="M285.62,253.5h2.44a1.28,1.28,0,0,1,1.28,1.28h0a1.28,1.28,0,0,1-1.28,1.28h-2.44a1.28,1.28,0,0,1-1.28-1.28h0A1.28,1.28,0,0,1,285.62,253.5Z" style="fill: rgb(255, 255, 255); transform-origin: 286.84px 254.78px;" id="elit2wuxpfmb" class="animable"></path><g id="elhd0e6xvmk4"><path d="M263,142.06H183.79a2.14,2.14,0,0,1-2.14-2.15h0a2.14,2.14,0,0,1,2.14-2.14H263a2.14,2.14,0,0,1,2.15,2.14h0A2.15,2.15,0,0,1,263,142.06Z" style="fill: rgb(255, 255, 255); opacity: 0.2; transform-origin: 223.4px 139.915px;" class="animable"></path></g><g id="eloebrxvmzqkc"><g style="opacity: 0.2; isolation: isolate; transform-origin: 279.01px 198.499px;" class="animable"><path d="M259.58,153H311V130.37a2.08,2.08,0,0,0-2.13-2.37H257v22C257,151.42,258.18,153,259.58,153Z" id="elo4q2jbtz54b" class="animable" style="transform-origin: 284.01px 140.499px;"></path><path d="M311,266.12V251H249.9a2.94,2.94,0,0,0-2.9,2.61V269h61.87C310.27,269,311,267.53,311,266.12Z" id="el9f2avewt7ts" class="animable" style="transform-origin: 279px 260px;"></path></g></g><rect x="162.67" y="245.88" width="8.33" height="5.12" style="fill: rgb(255, 255, 255); transform-origin: 166.835px 248.44px;" id="elhb8lpxubgi9" class="animable"></rect><rect x="177.67" y="230.49" width="8.33" height="20.5" style="fill: rgb(255, 255, 255); transform-origin: 181.835px 240.74px;" id="elyibti89ffsc" class="animable"></rect><rect x="192.67" y="220.24" width="8.33" height="30.76" style="fill: rgb(255, 255, 255); transform-origin: 196.835px 235.62px;" id="elsz990b76tqp" class="animable"></rect><rect x="207.67" y="223.31" width="8.33" height="27.68" style="fill: rgb(255, 255, 255); transform-origin: 211.835px 237.15px;" id="elntcyqpg73wm" class="animable"></rect><rect x="222.67" y="230.49" width="8.33" height="20.5" style="fill: rgb(255, 255, 255); transform-origin: 226.835px 240.74px;" id="el13cqst7j1nlm" class="animable"></rect><rect x="237.67" y="220.24" width="8.33" height="30.76" style="fill: rgb(255, 255, 255); transform-origin: 241.835px 235.62px;" id="elrtl3j3mwto" class="animable"></rect><rect x="252.67" y="209.98" width="8.33" height="41.02" style="fill: rgb(255, 255, 255); transform-origin: 256.835px 230.49px;" id="eljlejyswaeqp" class="animable"></rect><rect x="267.67" y="207.41" width="8.33" height="43.59" style="fill: rgb(255, 255, 255); transform-origin: 271.835px 229.205px;" id="el0hy23bsr3lah" class="animable"></rect><rect x="282.67" y="230.49" width="8.33" height="20.5" style="fill: rgb(255, 255, 255); transform-origin: 286.835px 240.74px;" id="elik264qbe6d9" class="animable"></rect></g><g id="freepik--Chart2--inject-293" class="animable" style="transform-origin: 306.345px 306.795px;"><rect x="258.87" y="261.39" width="94.95" height="90.81" rx="2.54" style="fill: rgb(38, 50, 56); transform-origin: 306.345px 306.795px;" id="elxbm9efqczz" class="animable"></rect><circle cx="298.1" cy="315.65" r="26.09" style="fill: rgb(214, 30, 30); transform-origin: 298.1px 315.65px;" id="elofs1jswo6e" class="animable"></circle><g id="els049i05xtqj"><path d="M298.1,315.65l20.82-15.72A26.09,26.09,0,1,1,289.5,291Z" style="fill: rgb(255, 255, 255); opacity: 0.2; transform-origin: 298.087px 316.363px;" class="animable"></path></g><path d="M298.1,315.65l20.21-16.49A26.08,26.08,0,1,1,277,300.31Z" style="fill: rgb(255, 255, 255); transform-origin: 298.098px 320.441px;" id="elu64qryrkbeb" class="animable"></path><rect x="332.32" y="294.47" width="8.35" height="8.35" rx="1.35" style="fill: rgb(214, 30, 30); transform-origin: 336.495px 298.645px;" id="elqx4njg9hwmn" class="animable"></rect><rect x="332.32" y="310.66" width="8.35" height="8.35" rx="1.35" style="fill: rgb(214, 30, 30); transform-origin: 336.495px 314.835px;" id="elyd093almnh" class="animable"></rect><rect x="332.32" y="326.85" width="8.35" height="8.35" rx="1.35" style="fill: rgb(255, 255, 255); transform-origin: 336.495px 331.025px;" id="el50ye6tc4jov" class="animable"></rect><g id="el16tirkn8tnn"><rect x="332.32" y="310.66" width="8.35" height="8.35" rx="1.35" style="fill: rgb(255, 255, 255); opacity: 0.2; transform-origin: 336.495px 314.835px;" class="animable"></rect></g><g id="el2nmofgvahcy"><path d="M337.45,276.31H275.23a2.14,2.14,0,0,1-2.14-2.15h0a2.14,2.14,0,0,1,2.14-2.14h62.22a2.14,2.14,0,0,1,2.14,2.14h0A2.14,2.14,0,0,1,337.45,276.31Z" style="fill: rgb(255, 255, 255); opacity: 0.2; transform-origin: 306.34px 274.165px;" class="animable"></path></g></g><g id="freepik--Chart1--inject-293" class="animable" style="transform-origin: 306.345px 113.71px;"><rect x="272.38" y="86.32" width="67.93" height="54.78" rx="2.54" style="fill: rgb(38, 50, 56); transform-origin: 306.345px 113.71px;" id="el9x6bys2yd5r" class="animable"></rect><g id="elyk9fwe4jan"><g style="opacity: 0.2; transform-origin: 306.5px 119.5px;" class="animable"><rect x="279" y="134" width="55" height="1" style="fill: rgb(255, 255, 255); transform-origin: 306.5px 134.5px;" id="ellsd3k526boc" class="animable"></rect><rect x="279" y="129" width="55" height="1" style="fill: rgb(255, 255, 255); transform-origin: 306.5px 129.5px;" id="elm4nayih0hl9" class="animable"></rect><rect x="279" y="124" width="55" height="1" style="fill: rgb(255, 255, 255); transform-origin: 306.5px 124.5px;" id="elzxuvzh87q0c" class="animable"></rect><rect x="279" y="119" width="55" height="1" style="fill: rgb(255, 255, 255); transform-origin: 306.5px 119.5px;" id="el7po354nykz" class="animable"></rect><rect x="279" y="114" width="55" height="1" style="fill: rgb(255, 255, 255); transform-origin: 306.5px 114.5px;" id="eljr261462qxn" class="animable"></rect><rect x="279" y="109" width="55" height="1" style="fill: rgb(255, 255, 255); transform-origin: 306.5px 109.5px;" id="el31j21eg6fi6" class="animable"></rect><rect x="279" y="104" width="55" height="1" style="fill: rgb(255, 255, 255); transform-origin: 306.5px 104.5px;" id="el5kgwkwo2s4p" class="animable"></rect></g></g><path d="M278.86,135V125l3.95-3.94a2.9,2.9,0,0,1,4.11,0h0a2.9,2.9,0,0,0,4,.1h0a7.56,7.56,0,0,1,9.36-.58l1.21.84a9.41,9.41,0,0,0,12.27-1.34l2.72-2.94a4.83,4.83,0,0,1,6.57-.49h0a4.85,4.85,0,0,0,6.2-.13l4.62-4V135Z" style="fill: rgb(214, 30, 30); transform-origin: 306.365px 123.76px;" id="elf6oydxp2q17" class="animable"></path><g id="elof7njo7hrrq"><path d="M278.86,135V125l3.95-3.94a2.9,2.9,0,0,1,4.11,0h0a2.9,2.9,0,0,0,4,.1h0a7.56,7.56,0,0,1,9.36-.58l1.21.84a9.41,9.41,0,0,0,12.27-1.34l2.72-2.94a4.83,4.83,0,0,1,6.57-.49h0a4.85,4.85,0,0,0,6.2-.13l4.62-4V135Z" style="fill: rgb(255, 255, 255); opacity: 0.2; transform-origin: 306.365px 123.76px;" class="animable"></path></g><path d="M278.86,135l10-9.47a3.09,3.09,0,0,1,4.49.2h0a3.1,3.1,0,0,0,4.46.24l4.7-4.41a5.85,5.85,0,0,1,7.56-.38h0a5.86,5.86,0,0,0,7.67-.49l.23-.23a3.1,3.1,0,0,1,4.32,0h0a3.68,3.68,0,0,0,4.85.22l6.71-5.2V135Z" style="fill: rgb(214, 30, 30); transform-origin: 306.355px 125.24px;" id="elu92i4y24gpg" class="animable"></path><g id="elqxq0tpveklo"><path d="M321.94,97.19h-31.2A2.15,2.15,0,0,1,288.6,95h0a2.14,2.14,0,0,1,2.14-2.14h31.2A2.14,2.14,0,0,1,324.09,95h0A2.15,2.15,0,0,1,321.94,97.19Z" style="fill: rgb(255, 255, 255); opacity: 0.2; transform-origin: 306.345px 95.025px;" class="animable"></path></g></g><g id="freepik--Character2--inject-293" class="animable" style="transform-origin: 355.407px 264.35px;"><g id="freepik--group--inject-293" class="animable" style="transform-origin: 355.407px 264.35px;"><path d="M304.67,177.83,294.83,171s-1.5-5.39-2.16-5.95-9.67-3.88-10.84-3.38-1,10.79,0,11.06S291,175.5,291,175.5l10.5,8.5Z" style="fill: rgb(228, 137, 123); transform-origin: 292.842px 172.809px;" id="elffu6hlkbg2" class="animable"></path><path d="M365.75,180s-.44.41-1.17,1.14c-1.72,1.68-5.58,5.07-9.58,8.7h0c-8,6.56-17.87,13.89-24,13.33-11-1-35-20.49-35-20.49l4.52-8.3S318,186,328.5,188.44s27.5-28.94,35.66-31.13Z" style="fill: rgb(214, 30, 30); transform-origin: 330.875px 180.255px;" id="elo0d2yiwj5qq" class="animable"></path><g id="elaaumslky26m"><path d="M365.75,180s-.44.41-1.17,1.14c-1.72,1.68-5.58,5.07-9.58,8.7h0c-8,6.56-17.87,13.89-24,13.33-11-1-35-20.49-35-20.49l4.52-8.3S318,186,328.5,188.44s27.5-28.94,35.66-31.13Z" style="fill: rgb(255, 255, 255); opacity: 0.6; isolation: isolate; transform-origin: 330.875px 180.255px;" class="animable"></path></g><polygon points="302.33 174.04 296.83 185 294.83 182 299.5 172.73 302.33 174.04" style="fill: rgb(214, 30, 30); transform-origin: 298.58px 178.865px;" id="elp0q4a35hmaa" class="animable"></polygon><g id="ell387vcrpqbf"><polygon points="302.33 174.04 296.83 185 294.83 182 299.5 172.73 302.33 174.04" style="fill: rgb(255, 255, 255); opacity: 0.7; isolation: isolate; transform-origin: 298.58px 178.865px;" class="animable"></polygon></g><g id="elu1e7w77bjl"><path d="M364.61,181.14c-1.72,1.68-5.27,5.07-9.55,8.7,1.94-8.86,8.11-16.17,8.11-16.17Z" style="opacity: 0.2; isolation: isolate; transform-origin: 359.835px 181.755px;" class="animable"></path></g><polygon points="365.48 408.03 357.37 408.88 355.85 391.39 363.96 390.53 365.48 408.03" style="fill: rgb(228, 137, 123); transform-origin: 360.665px 399.705px;" id="elukj3zvs3cvl" class="animable"></polygon><polygon points="405.96 407.44 398.1 407.44 397.45 389.23 405.32 389.23 405.96 407.44" style="fill: rgb(228, 137, 123); transform-origin: 401.705px 398.335px;" id="eldpc97r1tpge" class="animable"></polygon><path d="M397,406.53h9.55a.68.68,0,0,1,.67.54l1.55,7a1.18,1.18,0,0,1-1.15,1.4c-3.09-.05-5.34-.24-9.22-.24-2.39,0-9.6.25-12.9.25s-3.73-3.26-2.38-3.56c6.06-1.32,10.62-3.15,12.56-4.89A1.89,1.89,0,0,1,397,406.53Z" style="fill: rgb(46, 53, 58); transform-origin: 395.597px 411.005px;" id="elach2uf9qmrf" class="animable"></path><path d="M394.41,407.91a2.38,2.38,0,0,1-1.51-.4,1.12,1.12,0,0,1-.39-1,.55.55,0,0,1,.32-.52c.87-.45,3.41,1.11,3.69,1.29a.16.16,0,0,1,.09.18.19.19,0,0,1-.14.16A9.47,9.47,0,0,1,394.41,407.91Zm-1.17-1.63a.4.4,0,0,0-.24.05c-.05,0-.11.07-.12.22a.77.77,0,0,0,.25.67,3.82,3.82,0,0,0,2.8.14A7.5,7.5,0,0,0,393.24,406.28Z" style="fill: rgb(214, 30, 30); transform-origin: 394.557px 406.913px;" id="el3mkghrxna44" class="animable"></path><path d="M396.42,407.63h-.09c-.81-.44-2.38-2.17-2.22-3a.61.61,0,0,1,.6-.49,1,1,0,0,1,.79.24c.91.74,1.1,3,1.11,3.11a.2.2,0,0,1-.09.17A.17.17,0,0,1,396.42,407.63Zm-1.58-3.19h-.09c-.24,0-.26.14-.27.19-.1.51.9,1.82,1.71,2.43a4.38,4.38,0,0,0-.93-2.46A.61.61,0,0,0,394.84,404.44Z" style="fill: rgb(214, 30, 30); transform-origin: 395.354px 405.896px;" id="elflwt7l8u94i" class="animable"></path><path d="M356.51,406.28h9.55a.68.68,0,0,1,.67.54l1.55,7a1.18,1.18,0,0,1-1.15,1.4c-3.09-.05-5.34-.24-9.22-.24-2.39,0-9.6.25-12.9.25s-3.73-3.26-2.38-3.56c6.06-1.32,10.62-3.15,12.56-4.89A1.89,1.89,0,0,1,356.51,406.28Z" style="fill: rgb(46, 53, 58); transform-origin: 355.107px 410.755px;" id="elzgukijt0mee" class="animable"></path><path d="M353.91,407.66a2.38,2.38,0,0,1-1.51-.4,1.12,1.12,0,0,1-.39-1,.55.55,0,0,1,.32-.52c.87-.45,3.41,1.11,3.69,1.29a.16.16,0,0,1,.09.18.19.19,0,0,1-.14.16A9.47,9.47,0,0,1,353.91,407.66ZM352.74,406a.4.4,0,0,0-.24.05c-.05,0-.11.07-.12.22a.77.77,0,0,0,.25.67,3.82,3.82,0,0,0,2.8.14A7.5,7.5,0,0,0,352.74,406Z" style="fill: rgb(214, 30, 30); transform-origin: 354.057px 406.663px;" id="elf3lf6ln3kvd" class="animable"></path><path d="M355.92,407.38h-.09c-.81-.44-2.38-2.17-2.22-3a.61.61,0,0,1,.6-.49,1,1,0,0,1,.79.24c.91.74,1.1,3,1.11,3.11a.2.2,0,0,1-.09.17A.17.17,0,0,1,355.92,407.38Zm-1.58-3.19h-.09c-.24,0-.26.14-.27.19-.1.51.9,1.82,1.71,2.43a4.38,4.38,0,0,0-.93-2.46A.61.61,0,0,0,354.34,404.19Z" style="fill: rgb(214, 30, 30); transform-origin: 354.854px 405.646px;" id="elat2nw42a8rw" class="animable"></path><g id="elah40iqefqb"><polygon points="363.96 390.53 355.85 391.39 356.64 400.41 364.75 399.56 363.96 390.53" style="opacity: 0.2; isolation: isolate; transform-origin: 360.3px 395.47px;" class="animable"></polygon></g><g id="elpcn2kmdytfp"><polygon points="405.32 389.24 397.45 389.24 397.79 398.63 405.66 398.63 405.32 389.24" style="opacity: 0.2; isolation: isolate; transform-origin: 401.555px 393.935px;" class="animable"></polygon></g><path d="M402.07,229.5H360.35c-4,21.66-16.38,98.32-7.47,166.63L367,394.38s-1.31-90.68,11.16-124.2c1.44,17.94,3.14,37,4.62,47.18,3.63,25,11.4,79.64,11.4,79.64h14.38s-2.94-52.3-4.3-76.87C402.77,293.46,402.13,235,402.07,229.5Z" style="fill: rgb(214, 30, 30); transform-origin: 379.143px 313.25px;" id="el6wdv177mx37" class="animable"></path><g id="elvnyc6j3kexp"><path d="M378.16,270.18a111.8,111.8,0,0,0-4.66,18.05c-1.17-16,3.5-32.9,3.5-32.9Z" style="opacity: 0.2; isolation: isolate; transform-origin: 375.736px 271.78px;" class="animable"></path></g><polygon points="351.26 399.42 368.74 396.82 368.21 391.98 350.02 394.36 351.26 399.42" style="fill: rgb(214, 30, 30); transform-origin: 359.38px 395.7px;" id="elj9brxb5qfyg" class="animable"></polygon><g id="elx1stgtsjj7e"><polygon points="351.26 399.42 368.74 396.82 368.21 391.98 350.02 394.36 351.26 399.42" style="fill: rgb(255, 255, 255); opacity: 0.6; isolation: isolate; transform-origin: 359.38px 395.7px;" class="animable"></polygon></g><polygon points="392.45 397.12 409.41 397.12 409.41 392.05 391.81 391.72 392.45 397.12" style="fill: rgb(214, 30, 30); transform-origin: 400.61px 394.42px;" id="elu2jgx86e75g" class="animable"></polygon><g id="elfxlg3q0mvt4"><polygon points="392.45 397.12 409.41 397.12 409.41 392.05 391.81 391.72 392.45 397.12" style="fill: rgb(255, 255, 255); opacity: 0.6; isolation: isolate; transform-origin: 400.61px 394.42px;" class="animable"></polygon></g><polygon points="360 230 402 230 402 235 359.46 234.48 360 230" style="fill: rgb(38, 50, 56); transform-origin: 380.73px 232.5px;" id="elr3mrdyczdmc" class="animable"></polygon><rect x="387" y="227.75" width="1.5" height="8.88" style="fill: rgb(214, 30, 30); transform-origin: 387.75px 232.19px;" id="el4c6ofr6kjp4" class="animable"></rect><rect x="365.75" y="227.75" width="1.5" height="8.88" style="fill: rgb(214, 30, 30); transform-origin: 366.5px 232.19px;" id="ellj3v933oghq" class="animable"></rect><rect x="371.38" y="229.13" width="7.77" height="5.6" style="fill: rgb(255, 255, 255); transform-origin: 375.265px 231.93px;" id="elfbj2dbtt9rl" class="animable"></rect><path d="M364.16,157.31s26.54-1.25,46.31,3.74c0,0-8.73,43.95-8.4,68.95H360S357.27,183.11,364.16,157.31Z" style="fill: rgb(214, 30, 30); transform-origin: 384.968px 193.585px;" id="el30ot8zgtpst" class="animable"></path><g id="elx96dnxxjwyj"><path d="M410.47,161.05s-1.74,8.76-3.64,20.68c-.7,4.43-1.43,9.3-2.1,14.32-1.55,11.72-2.79,24.26-2.66,33.95H360s-2.73-46.89,4.16-72.69C364.16,157.31,390.7,156.06,410.47,161.05Z" style="fill: rgb(255, 255, 255); opacity: 0.6; isolation: isolate; transform-origin: 384.968px 193.585px;" class="animable"></path></g><path d="M378,160.68l1.11,5.49s-6.39,26.66-7.76,40.5L373.7,209l3.67-2.33s.33-28.17,3.56-40l5.8-4.75-4.56-1.48Z" style="fill: rgb(214, 30, 30); transform-origin: 379.04px 184.72px;" id="elts75p376vbr" class="animable"></path><path d="M372.31,121.5s-1.64,10.83,4.11,15,5.75-16,5.75-16Z" style="fill: rgb(46, 53, 58); transform-origin: 377.132px 128.784px;" id="elcg7h8l9jik8" class="animable"></path><path d="M395.38,158.25c-3.83,3.48-13.21,2.19-13.21,2.19s-5.86-1.6-4.63-3.43c3.45-.57,5.12-2.18,5.81-4.24a10,10,0,0,0,.35-3.94,20.71,20.71,0,0,0-.29-2.2L395,138C393.49,143.71,391.63,154.14,395.38,158.25Z" style="fill: rgb(228, 137, 123); transform-origin: 386.375px 149.337px;" id="eldtyjv3tppu" class="animable"></path><g id="elz3kiqydzq1a"><path d="M392.33,143.5c-.46,7-6.18,8.88-9,9.27a10,10,0,0,0,.35-3.94Z" style="opacity: 0.2; isolation: isolate; transform-origin: 387.83px 148.135px;" class="animable"></path></g><path d="M393.11,145.11a9.83,9.83,0,0,1-11.29,3.81,11,11,0,0,1-6.25-5.09,11.2,11.2,0,0,1-.52-1c-2.83-6.62-3.73-18.2,3.27-22.54a10.66,10.66,0,0,1,16.28,8C395.46,136,396.33,140.53,393.11,145.11Z" style="fill: rgb(228, 137, 123); transform-origin: 384.169px 134.047px;" id="elm3y4gqrf7n" class="animable"></path><path d="M383.32,132.42c.15.61-.14,1.18-.55,1.25s-.83-.38-.94-1,.15-1.18.55-1.25S383.2,131.78,383.32,132.42Z" style="fill: rgb(46, 53, 58); transform-origin: 382.582px 132.545px;" id="elm6vr55wndg" class="animable"></path><path d="M376.25,133.62c.15.61-.14,1.19-.55,1.26s-.82-.39-.93-1,.14-1.19.55-1.26S376.15,133,376.25,133.62Z" style="fill: rgb(46, 53, 58); transform-origin: 375.517px 133.75px;" id="elsl0tb6pf3y" class="animable"></path><path d="M378.55,133.55a22.9,22.9,0,0,1-2.07,5.85,3.65,3.65,0,0,0,3.1,0Z" style="fill: rgb(222, 87, 83); transform-origin: 378.03px 136.648px;" id="elxucg7xt234" class="animable"></path><path d="M385.12,129.75a.38.38,0,0,1-.38-.08,3,3,0,0,0-2.56-.83.37.37,0,0,1-.18-.72h0a3.69,3.69,0,0,1,3.24,1,.36.36,0,0,1,0,.52h0A.44.44,0,0,1,385.12,129.75Z" style="fill: rgb(46, 53, 58); transform-origin: 383.535px 128.916px;" id="eluj6uhtawej" class="animable"></path><path d="M381.14,142.51h0a5.67,5.67,0,0,0,4.63-2.52.19.19,0,0,0-.07-.27.19.19,0,0,0-.26.06h0a5.45,5.45,0,0,1-4.31,2.32.2.2,0,0,0-.19.19v0a.19.19,0,0,0,.19.19Z" style="fill: rgb(46, 53, 58); transform-origin: 383.37px 141.101px;" id="el3b1ov2cncu8" class="animable"></path><path d="M372.8,131.7a.39.39,0,0,1-.21.06.37.37,0,0,1-.26-.46h0a3.69,3.69,0,0,1,2.29-2.51.36.36,0,0,1,.46.25h0a.37.37,0,0,1-.25.46h0a3,3,0,0,0-1.78,2A.35.35,0,0,1,372.8,131.7Z" style="fill: rgb(46, 53, 58); transform-origin: 373.705px 130.266px;" id="elujnmtfmohzj" class="animable"></path><path d="M387.33,119.67v3.45a2.57,2.57,0,0,1,1.67,3c-.75,3,1.42,7.24,3.83,8.75,0,0-.08-1.25,1-1.09s1.59,6.67-.08,10c0,0,2.75-3.16,3.67-10.16.84-6.48.41-11.73-1.18-14Z" style="fill: rgb(46, 53, 58); transform-origin: 392.585px 131.7px;" id="ely6mqhwfczd9" class="animable"></path><path d="M396.24,120.67s2.59-5.84-7.07-7.17-19.84,2.5-19.84,2.5-.5,9.26,7.69,9.17C385,125.08,396.24,120.67,396.24,120.67Z" style="fill: rgb(46, 53, 58); transform-origin: 382.94px 119.195px;" id="el2y9xzuy7ro8" class="animable"></path><path d="M399,134a7.45,7.45,0,0,1-3.56,4.41c-2.29,1.23-4-.69-3.84-3.14.16-2.19,1.51-5.53,4.05-5.72S399.68,131.68,399,134Z" style="fill: rgb(228, 137, 123); transform-origin: 395.377px 134.166px;" id="eldol84y37ows" class="animable"></path><path d="M393.67,153.83l-11.09,5-.65-4-4.07,1.43a3.33,3.33,0,0,0-2.22,3.51l.45,4.4,5.63-3.08,2.8,4,13.32-6.41Z" style="fill: rgb(214, 30, 30); transform-origin: 386.73px 159.46px;" id="elw3f4tojajon" class="animable"></path><g id="ellsfc8qc9f2"><path d="M393.67,153.83l-11.09,5-.65-4-4.07,1.43a3.33,3.33,0,0,0-2.22,3.51l.45,4.4,5.63-3.08,2.8,4,13.32-6.41Z" style="fill: rgb(255, 255, 255); opacity: 0.7; isolation: isolate; transform-origin: 386.73px 159.46px;" class="animable"></path></g><g id="el3v9oupadyi4"><path d="M406.83,181.73c-.7,4.43-1.43,9.3-2.1,14.32a21.16,21.16,0,0,1-.82-17.19Z" style="opacity: 0.2; isolation: isolate; transform-origin: 404.65px 187.455px;" class="animable"></path></g><path d="M410.47,161.05c4.78,2.2,20.31,33.35,19.28,50.94-1,17.14-27.75,38.51-27.75,38.51s-5.79-4.7-6.6-8.74c0,0,18.85-19.53,19.35-29.77.49-10.06-10.5-28-10.5-28s-1.25-7.5,1-14S410.47,161.05,410.47,161.05Z" style="fill: rgb(214, 30, 30); transform-origin: 412.599px 205.775px;" id="el0klblrh5qjv" class="animable"></path><g id="el38y25ejnnlv"><path d="M410.47,161.05c4.78,2.2,20.31,33.35,19.28,50.94-1,17.14-27.75,38.51-27.75,38.51s-5.79-4.7-6.6-8.74c0,0,18.85-19.53,19.35-29.77.49-10.06-10.5-28-10.5-28s-1.25-7.5,1-14S410.47,161.05,410.47,161.05Z" style="fill: rgb(255, 255, 255); opacity: 0.6; isolation: isolate; transform-origin: 412.599px 205.775px;" class="animable"></path></g><path d="M395.4,237.6s4.36,9.78,8,11.76c0,0,.79,3.31-2.38,7.81S385.63,246.2,395.4,237.6Z" style="fill: rgb(214, 30, 30); transform-origin: 397.585px 247.787px;" id="el8tw2b00o6gk" class="animable"></path></g></g><g id="freepik--Character1--inject-293" class="animable" style="transform-origin: 121.732px 265.68px;"><g id="freepik--group--inject-293" class="animable" style="transform-origin: 121.732px 265.68px;"><polygon points="133.98 408.03 142.1 408.88 143.62 391.39 135.51 390.53 133.98 408.03" style="fill: rgb(228, 137, 123); transform-origin: 138.8px 399.705px;" id="elll6vzamdec" class="animable"></polygon><polygon points="93.5 407.44 101.36 407.44 102.02 389.23 94.14 389.23 93.5 407.44" style="fill: rgb(228, 137, 123); transform-origin: 97.76px 398.335px;" id="eluizapjrk7s" class="animable"></polygon><path d="M102.45,406.53H92.9a.68.68,0,0,0-.67.54l-1.55,7a1.16,1.16,0,0,0,.9,1.37,1.07,1.07,0,0,0,.25,0c3.09-.05,5.34-.24,9.22-.24,2.39,0,9.6.25,12.9.25s3.73-3.26,2.38-3.56c-6.06-1.32-10.62-3.15-12.56-4.89A1.88,1.88,0,0,0,102.45,406.53Z" style="fill: rgb(46, 53, 58); transform-origin: 103.852px 410.989px;" id="el1zvr4syxkfe" class="animable"></path><path d="M143,406.28H133.4a.68.68,0,0,0-.67.54l-1.55,7a1.16,1.16,0,0,0,.9,1.37,1.07,1.07,0,0,0,.25,0c3.09-.05,5.34-.24,9.22-.24,2.39,0,9.6.25,12.9.25s3.73-3.26,2.38-3.56c-6.06-1.32-10.62-3.15-12.56-4.89A1.88,1.88,0,0,0,143,406.28Z" style="fill: rgb(46, 53, 58); transform-origin: 144.351px 410.74px;" id="elb62ug6cq21a" class="animable"></path><path d="M144.36,403H132.83s.94-99.25-11.53-132.77c-.88,11.08-1.87,22.57-2.84,32.15-.61,5.93-1.21,11-1.78,14.91-3.63,25-12.79,86.71-12.79,86.71H92.5s1.35-59.14,2.7-83.7c1.49-26.67,2.13-85.3,2.19-90.3h41.72C143.08,251,153.26,335,144.36,403Z" style="fill: rgb(38, 50, 56); transform-origin: 120.203px 317px;" id="eljs8r9m50e" class="animable"></path><g id="els7sr13r65zl"><path d="M144.36,403H132.83s.94-99.25-11.53-132.77c-.88,11.08-1.87,22.57-2.84,32.15-.61,5.93-1.21,11-1.78,14.91-3.63,25-12.79,86.71-12.79,86.71H92.5s1.35-59.14,2.7-83.7c1.49-26.67,2.13-85.3,2.19-90.3h41.72C143.08,251,153.26,335,144.36,403Z" style="fill: rgb(255, 255, 255); opacity: 0.1; isolation: isolate; transform-origin: 120.203px 317px;" class="animable"></path></g><path d="M133.63,167.91l-9.41-15.32a6.65,6.65,0,0,1-3.88-2.49c-1.45-2-2.36-10-1.67-10.34s8,.5,8.49,1.48,2,9.1,2,9.1L140,163.05Z" style="fill: rgb(228, 137, 123); transform-origin: 129.217px 153.797px;" id="elooh1ufbodad" class="animable"></path><g id="elvoqqqf804ni"><path d="M133.63,167.91l-9.41-15.32a6.65,6.65,0,0,1-3.88-2.49c-1.45-2-2.36-10-1.67-10.34s8,.5,8.49,1.48,2,9.1,2,9.1L140,163.05Z" style="opacity: 0.2; isolation: isolate; transform-origin: 129.217px 153.797px;" class="animable"></path></g><polygon points="136.26 155.31 133.84 152.88 125.76 158.88 126.52 162 136.26 155.31" style="fill: rgb(214, 30, 30); transform-origin: 131.01px 157.44px;" id="elt553v1340me" class="animable"></polygon><g id="eljcb65bez27"><polygon points="136.26 155.31 133.84 152.88 125.76 158.88 126.52 162 136.26 155.31" style="fill: rgb(255, 255, 255); opacity: 0.6; isolation: isolate; transform-origin: 131.01px 157.44px;" class="animable"></polygon></g><path d="M129.92,158.49l6.34-3.91s18,24.34,20.17,36.42-22.1-14.08-22.1-14.08Z" style="fill: rgb(214, 30, 30); transform-origin: 143.244px 174.383px;" id="elgzqf1cihxon" class="animable"></path><path d="M90.29,161.09s-3.78,2.15-4.32,12.66c-.5,9.48,2.56,29.65,8.5,34.06,9.49,7,44-2.67,44-2.67L137.14,195s-26.12,3.46-32.34,0-8.08-21.21-8.08-21.21S94.11,162.18,90.29,161.09Z" style="fill: rgb(214, 30, 30); transform-origin: 112.194px 185.722px;" id="elq91xvdfe6cl" class="animable"></path><g id="elckghahwwsnu"><path d="M90.29,161.09s-3.78,2.15-4.32,12.66c-.5,9.48,2.56,29.65,8.5,34.06,9.49,7,44-2.67,44-2.67L137.14,195s-26.12,3.46-32.34,0-8.08-21.21-8.08-21.21S94.11,162.18,90.29,161.09Z" style="opacity: 0.2; isolation: isolate; transform-origin: 112.194px 185.722px;" class="animable"></path></g><path d="M124.42,142.79a11.2,11.2,0,0,1-.52,1,11.06,11.06,0,0,1-6.25,5.09,9.85,9.85,0,0,1-11.29-3.81c-3.22-4.58-2.35-9.09-1.49-16.83a10.66,10.66,0,0,1,16.28-8C128.15,124.59,127.25,136.17,124.42,142.79Z" style="fill: rgb(228, 137, 123); transform-origin: 115.301px 134px;" id="eljacm19fz13" class="animable"></path><g id="eluqba4z76xqn"><path d="M119.2,148.29a10.94,10.94,0,0,1-1.55.63,9.91,9.91,0,0,1-8.46-1A11.61,11.61,0,0,1,111,145.5,15.35,15.35,0,0,1,119.2,148.29Z" style="opacity: 0.2; isolation: isolate; transform-origin: 114.195px 147.472px;" class="animable"></path></g><path d="M104.09,158.25c3.83,3.48,13.21,2.19,13.21,2.19s5.85-1.6,4.63-3.43c-3.45-.57-5.13-2.18-5.82-4.24a10,10,0,0,1-.34-3.94c0-.73.16-1.47.28-2.2L104.46,138C106,143.71,107.84,154.14,104.09,158.25Z" style="fill: rgb(228, 137, 123); transform-origin: 113.094px 149.337px;" id="eliwcb1ifxpyh" class="animable"></path><path d="M123.33,125.83s2.17,7.32-5.33,12.58c0,0-3.15,6.76-4.91,7.59s-5.73.33-7.08,0-8.26-6.08-6.26-19.58,13.34-9.23,13.34-9.23,3.87-3.36,11.08.81C130.17,121.48,129,128,123.33,125.83Z" style="fill: rgb(46, 53, 58); transform-origin: 113.774px 131.182px;" id="elyer3g930zfa" class="animable"></path><path d="M117,134.92a5,5,0,0,0,2,3.83c1.45.93,2.84-1.1,3-3.44.13-2.08-.44-5.13-2.18-5S116.79,132.76,117,134.92Z" style="fill: rgb(228, 137, 123); transform-origin: 119.498px 134.643px;" id="eloe6x1wwotua" class="animable"></path><path d="M104.09,155.75l1.16-4.5s11.47-1.53,16.74,3.55l-1.36,5.33Z" style="fill: rgb(214, 30, 30); transform-origin: 113.04px 155.582px;" id="el9ych125intb" class="animable"></path><g id="ellhfimwogwx"><path d="M104.09,155.75l1.16-4.5s11.47-1.53,16.74,3.55l-1.36,5.33Z" style="fill: rgb(255, 255, 255); opacity: 0.6; isolation: isolate; transform-origin: 113.04px 155.582px;" class="animable"></path></g><path d="M100.74,158.78l3.35-5.28s14.34-3.53,21.13,5S100.74,158.78,100.74,158.78Z" style="fill: rgb(214, 30, 30); transform-origin: 113.462px 157.571px;" id="els5xib48xw9f" class="animable"></path><g id="elyjtn9ek3sz"><path d="M100.74,158.78l3.35-5.28s14.34-3.53,21.13,5S100.74,158.78,100.74,158.78Z" style="opacity: 0.2; isolation: isolate; transform-origin: 113.462px 157.571px;" class="animable"></path></g><path d="M125.22,197.64l17.93-1.25a6.67,6.67,0,0,1,4-2.28c2.49-.34,9.94,2.53,9.94,3.3s-4.14,6.85-5.24,6.85-9-2.49-9-2.49l-16.29,3.73Z" style="fill: rgb(228, 137, 123); transform-origin: 141.155px 199.791px;" id="elnbf6xbyy18t" class="animable"></path><path d="M90.17,161a176.11,176.11,0,0,1,5,25.87c.33,2.68.6,5.31.82,7.86.29,3.24.49,6.36.65,9.32.2,3.75.26,8.18.25,12.54,0,10-3.39,30.34-3.39,30.34,8,2,33.75,1.91,49.74-1.44,1.64-12.83-1.24-34.87-1.86-45.91a210.22,210.22,0,0,0-2.65-23.93,100.56,100.56,0,0,0-2.83-12.52,8,8,0,0,0-6.63-5.51c-1.53-.19-3.3-.38-5.16-.49-.72,0-1.44-.07-2.17-.08a154.55,154.55,0,0,0-17.85,1.24c-1.11.13-2.25.3-3.35.48A102.46,102.46,0,0,0,90.17,161Z" style="fill: rgb(214, 30, 30); transform-origin: 116.954px 202.654px;" id="elojiw9tcdm9a" class="animable"></path><path d="M132,158.49c9.46.76,28.06,31.69,24.56,38.41s-9.37,9.85-19.49-9.15S132,158.49,132,158.49Z" style="fill: rgb(214, 30, 30); transform-origin: 143.866px 180.298px;" id="elp2eg0d2gq8" class="animable"></path><g id="el0cuw7vnf4yt"><path d="M132,158.49c9.46.76,28.06,31.69,24.56,38.41s-9.37,9.85-19.49-9.15S132,158.49,132,158.49Z" style="opacity: 0.2; isolation: isolate; transform-origin: 143.866px 180.298px;" class="animable"></path></g><g id="elanjtn5btgb"><path d="M121.3,270.18c-.88,11.08-1.87,22.6-2.84,32.18-1.42-13.83-3.16-23.69-3.16-23.69s-1.63-1.34-6.11-8.49,0-20.5,0-20.5C109.05,262.08,121.3,270.18,121.3,270.18Z" style="opacity: 0.2; isolation: isolate; transform-origin: 114.249px 276.02px;" class="animable"></path></g><g id="elvyyibkxez4n"><path d="M108,158.49a17.29,17.29,0,0,0-1,3.08,30.69,30.69,0,0,0-.6,3.66,43.44,43.44,0,0,0-.23,4.79,50.25,50.25,0,0,0,.38,5.66c.1,1,.31,2,.46,3.07s.41,2.1.62,3.18.43,2.19.62,3.32.34,2.28.51,3.43.29,2.32.43,3.49.25,2.35.37,3.53c.41,4.71.69,9.42.91,13.84s.27,8.56.35,12.1,0,6.49,0,8.55,0,3.25,0,3.25-.22-4.71-.54-11.78c-.16-3.54-.41-7.66-.66-12.07s-.59-9.11-1-13.8c-.11-1.17-.22-2.35-.32-3.51s-.27-2.33-.4-3.48l-.48-3.39c-.17-1.12-.39-2.23-.58-3.32s-.42-2.16-.58-3.21-.3-2.1-.37-3.12a50,50,0,0,1-.22-5.75,35.63,35.63,0,0,1,.42-4.83,29.2,29.2,0,0,1,.79-3.66A15.66,15.66,0,0,1,108,158.49Z" style="opacity: 0.2; isolation: isolate; transform-origin: 108.258px 195.965px;" class="animable"></path></g></g></g><defs>     <filter id="active" height="200%">         <feMorphology in="SourceAlpha" result="DILATED" operator="dilate" radius="2"></feMorphology>                <feFlood flood-color="#32DFEC" flood-opacity="1" result="PINK"></feFlood>        <feComposite in="PINK" in2="DILATED" operator="in" result="OUTLINE"></feComposite>        <feMerge>            <feMergeNode in="OUTLINE"></feMergeNode>            <feMergeNode in="SourceGraphic"></feMergeNode>        </feMerge>    </filter>    <filter id="hover" height="200%">        <feMorphology in="SourceAlpha" result="DILATED" operator="dilate" radius="2"></feMorphology>                <feFlood flood-color="#ff0000" flood-opacity="0.5" result="PINK"></feFlood>        <feComposite in="PINK" in2="DILATED" operator="in" result="OUTLINE"></feComposite>        <feMerge>            <feMergeNode in="OUTLINE"></feMergeNode>            <feMergeNode in="SourceGraphic"></feMergeNode>        </feMerge>            <feColorMatrix type="matrix" values="0   0   0   0   0                0   1   0   0   0                0   0   0   0   0                0   0   0   1   0 "></feColorMatrix>    </filter></defs></svg>
